<svg width="14" height="13" viewBox="0 0 14 13" fill="none" xmlns="http://www.w3.org/2000/svg">
<path d="M9.07994 1.06952C9.01124 0.813246 8.8469 0.599009 8.61713 0.466382C8.14289 0.192547 7.53419 0.355569 7.26027 0.829974L7.10738 1.09475L6.95449 0.829934C6.68062 0.355648 6.07196 0.192547 5.59763 0.466343H5.59759C5.12327 0.740218 4.9602 1.34888 5.23404 1.82324L5.96039 3.08133L3.28028 7.72346H1.32632C0.778607 7.72346 0.333008 8.16906 0.333008 8.71677C0.333008 9.26449 0.778607 9.71008 1.32632 9.71008H8.86991L7.72292 7.72346H5.57423L8.98069 1.82328C9.11335 1.59351 9.14863 1.32579 9.07994 1.06952Z" fill="#0F6F36"/>
<path d="M12.8886 7.72342H10.9347L8.71336 3.87598L7.56641 5.8626L11.0153 11.8363C11.148 12.0661 11.3622 12.2305 11.6185 12.2992C11.7041 12.3221 11.7909 12.3335 11.8772 12.3335C12.0493 12.3335 12.2192 12.2883 12.3723 12.1999C12.8466 11.926 13.0097 11.3173 12.7358 10.8431L12.0816 9.71004H12.8886C13.4363 9.71004 13.8819 9.26444 13.8819 8.71673C13.8819 8.16902 13.4363 7.72342 12.8886 7.72342Z" fill="#0F6F36"/>
<path d="M1.67491 10.5049L1.47955 10.8432C1.20571 11.3176 1.36881 11.9263 1.84314 12.2001C1.99917 12.2902 2.1697 12.333 2.33813 12.333C2.68165 12.333 3.01624 12.1548 3.20004 11.8365L3.96886 10.5049H1.67491Z" fill="#0F6F36"/>
</svg>
