<svg width="18" height="18" viewBox="0 0 18 18" fill="none" xmlns="http://www.w3.org/2000/svg">
  <path d="M9 1.5C5.68629 1.5 3 4.18629 3 7.5C3 9.54208 4.02114 11.3457 5.57916 12.4308C6.09176 12.7878 6.375 13.3349 6.375 13.9596V14.0625C6.375 14.5803 6.79473 15 7.3125 15H10.6875C11.2053 15 11.625 14.5803 11.625 14.0625V13.9596C11.625 13.3349 11.9082 12.7878 12.4208 12.4308C13.9789 11.3457 15 9.54208 15 7.5C15 4.18629 12.3137 1.5 9 1.5Z" fill="#FFD54F"/>
  <path d="M7.5 16.5H10.5" stroke="#9EA0A8" stroke-width="1.3" stroke-linecap="round"/>
  <path d="M7.875 14.25H10.125" stroke="#B0B4BE" stroke-width="1.3" stroke-linecap="round"/>
  <path d="M6.8 7.2C7.1 5.8 8.1 4.95 9.5 4.8" stroke="#FFEEA6" stroke-width="1.2" stroke-linecap="round"/>
  <path d="M9 0.8V0" stroke="#FFC107" stroke-width="1.2" stroke-linecap="round"/>
  <path d="M3.7 2.2L3.1 1.6" stroke="#FFC107" stroke-width="1.2" stroke-linecap="round"/>
  <path d="M14.3 2.2L14.9 1.6" stroke="#FFC107" stroke-width="1.2" stroke-linecap="round"/>
</svg>
