<svg width="152" height="108" viewBox="0 0 152 108" fill="none" xmlns="http://www.w3.org/2000/svg">
<ellipse cx="130.672" cy="27.9999" rx="5.00662" ry="5" fill="#EAF7EE"/>
<ellipse cx="125.666" cy="57" rx="3.00397" ry="3" fill="#EAF7EE"/>
<ellipse cx="30.5401" cy="21" rx="3.00397" ry="3" fill="#EAF7EE"/>
<ellipse cx="64.585" cy="105" rx="3.00397" ry="3" fill="#CDEAD6"/>
<ellipse cx="3.50397" cy="71.0002" rx="3.00397" ry="3" fill="#CDEAD6"/>
<ellipse cx="18.5238" cy="50" rx="4.0053" ry="4" fill="#CDEAD6"/>
<ellipse cx="104.637" cy="102" rx="4.0053" ry="4" fill="#EAF7EE"/>
<ellipse cx="81.6078" cy="4" rx="4.00529" ry="4" fill="#EAF7EE"/>
<ellipse cx="108.643" cy="15" rx="3.00397" ry="3" fill="#EAF7EE"/>
<ellipse cx="32.5428" cy="87" rx="5.00662" ry="5" fill="#EAF7EE"/>
<circle cx="50.5" cy="7.99976" r="5" fill="#CDEAD6"/>
<ellipse cx="122.662" cy="81" rx="5.00662" ry="5" fill="#CDEAD6"/>
<circle cx="148" cy="50.4998" r="3.5" fill="#CDEAD6"/>
<ellipse cx="77.6018" cy="55.0001" rx="40.053" ry="40" fill="#EAF7EE"/>
<g clip-path="url(#clip0_1014_1886)">
<rect width="47.3028" height="47.2402" transform="translate(53.7158 31.2124)" fill="white" fill-opacity="0.01"/>
<path d="M69.4834 48.4154C69.4834 47.4757 69.82 46.5669 70.4324 45.8534L79.875 34.8516C80.7178 33.8696 82.1217 33.5865 83.28 34.1649C84.411 34.7296 84.954 36.0389 84.5542 37.2368L81.3091 46.9591H90.3825C90.619 46.9591 90.855 46.9804 91.0877 47.0226C93.2296 47.4116 94.6503 49.4609 94.2608 51.6L91.7523 65.3784C91.4116 67.2503 89.7791 68.6109 87.874 68.6109H73.4253C71.2482 68.6109 69.4834 66.8484 69.4834 64.6742V48.4154Z" stroke="#86D29F" stroke-width="4.44444" stroke-linecap="round"/>
<path d="M61.5996 66.6426V48.9275" stroke="#86D29F" stroke-width="4.44444" stroke-linecap="round"/>
</g>
<defs>
<clipPath id="clip0_1014_1886">
<rect width="47.3028" height="47.2402" fill="white" transform="translate(53.7158 31.2124)"/>
</clipPath>
</defs>
</svg>
