<svg width="152" height="108" viewBox="0 0 152 108" fill="none" xmlns="http://www.w3.org/2000/svg">
<ellipse cx="130.671" cy="28" rx="5.00662" ry="5" fill="#EAF7EE"/>
<ellipse cx="125.666" cy="57" rx="3.00397" ry="3" fill="#EAF7EE"/>
<ellipse cx="30.5391" cy="21" rx="3.00397" ry="3" fill="#EAF7EE"/>
<ellipse cx="64.5841" cy="105" rx="3.00397" ry="3" fill="#CDEAD6"/>
<ellipse cx="3.50397" cy="71" rx="3.00397" ry="3" fill="#CDEAD6"/>
<ellipse cx="18.5248" cy="50" rx="4.0053" ry="4" fill="#CDEAD6"/>
<ellipse cx="104.638" cy="102" rx="4.0053" ry="4" fill="#EAF7EE"/>
<ellipse cx="81.6069" cy="4" rx="4.00529" ry="4" fill="#EAF7EE"/>
<ellipse cx="108.643" cy="15" rx="3.00397" ry="3" fill="#EAF7EE"/>
<ellipse cx="32.5418" cy="87" rx="5.00662" ry="5" fill="#EAF7EE"/>
<circle cx="50.5" cy="8" r="5" fill="#CDEAD6"/>
<ellipse cx="122.661" cy="81" rx="5.00662" ry="5" fill="#CDEAD6"/>
<circle cx="148" cy="50.5" r="3.5" fill="#CDEAD6"/>
<ellipse cx="77.6018" cy="55" rx="40.053" ry="40" fill="#EAF7EE"/>
<rect width="47.3028" height="47.2402" transform="translate(53.7148 31.2124)" fill="white" fill-opacity="0.01"/>
<path d="M77.3657 41.0541V38.1016M77.3657 72.5476V68.6109M63.5691 54.8325H57.6562M97.0752 54.8325H91.1624M87.1214 45.0897L91.3025 40.9142M63.429 68.7508L67.61 64.5753M87.1214 64.5753L91.3025 68.7508M63.429 40.9142L67.61 45.0897" stroke="#86D29F" stroke-width="4" stroke-linecap="round"/>
</svg>
