<svg width="17" height="16" viewBox="0 0 17 16" fill="none" xmlns="http://www.w3.org/2000/svg">
<rect width="16" height="16" transform="translate(0.5)" fill="white" fill-opacity="0.01"/>
<path d="M4.94305 1.50342C4.59956 1.29665 4.19018 1.27816 3.83314 1.45029L9.8194 7.44931L11.7767 5.48289L4.94305 1.50342ZM3.28314 2.00551C3.20762 2.1654 3.16699 2.34327 3.16699 2.52635V13.4999C3.16699 13.6837 3.20788 13.859 3.28418 14.0155L9.26809 8.00322L3.28314 2.00551ZM9.82021 8.55635L3.84359 14.5614C4.00218 14.6348 4.17093 14.6668 4.33943 14.6668C4.5475 14.6668 4.75505 14.6171 4.94308 14.5041L11.778 10.5186L9.82021 8.55635ZM14.3794 6.99853C14.377 6.99696 14.3744 6.9954 14.3721 6.9941L12.4747 5.88914L10.3713 8.00244L12.476 10.1116C12.476 10.1116 14.377 9.00323 14.3794 9.00193C14.7322 8.78761 14.9429 8.41312 14.9429 8.0001C14.9429 7.58707 14.7322 7.21259 14.3794 6.99853Z" fill="#0F6F36"/>
</svg>
