<svg width="263" height="189" viewBox="0 0 263 189" fill="none" xmlns="http://www.w3.org/2000/svg">
<circle cx="226.328" cy="48.7476" r="8.70493" fill="#EAF7EE"/>
<circle cx="217.623" cy="99.2361" r="5.22296" fill="#EAF7EE"/>
<circle cx="52.2297" cy="36.5607" r="5.22296" fill="#EAF7EE"/>
<circle cx="111.423" cy="182.804" r="5.22296" fill="#CDEAD6"/>
<circle cx="5.22296" cy="123.61" r="5.22296" fill="#CDEAD6"/>
<circle cx="31.3377" cy="87.0493" r="6.96394" fill="#CDEAD6"/>
<circle cx="181.062" cy="177.581" r="6.96394" fill="#EAF7EE"/>
<circle cx="141.02" cy="6.96394" r="6.96394" fill="#EAF7EE"/>
<circle cx="188.027" cy="26.1147" r="5.22296" fill="#EAF7EE"/>
<circle cx="55.7117" cy="151.466" r="8.70493" fill="#EAF7EE"/>
<circle cx="87.0493" cy="13.9279" r="8.70493" fill="#CDEAD6"/>
<circle cx="212.4" cy="141.02" r="8.70493" fill="#CDEAD6"/>
<circle cx="256.796" cy="87.9197" r="6.09345" fill="#CDEAD6"/>
<circle cx="133.64" cy="95.6394" r="69.6394" fill="#EAF7EE"/>
<rect width="72" height="72" transform="translate(98.0001 60)" fill="white" fill-opacity="0.01"/>
<path d="M122 111V81" stroke="#86D29F" stroke-width="6" stroke-linecap="round"/>
<path d="M134 111V81" stroke="#86D29F" stroke-width="6" stroke-linecap="round"/>
<path d="M146 111V81" stroke="#86D29F" stroke-width="6" stroke-linecap="round"/>
<path d="M107 81V71C107 69.8954 107.896 69 109 69H119" stroke="#86D29F" stroke-width="6" stroke-linecap="round" stroke-linejoin="round"/>
<path d="M149 69L159 69C160.105 69 161 69.8954 161 71L161 81" stroke="#86D29F" stroke-width="6" stroke-linecap="round" stroke-linejoin="round"/>
<path d="M161 111L161 121C161 122.105 160.105 123 159 123L149 123" stroke="#86D29F" stroke-width="6" stroke-linecap="round" stroke-linejoin="round"/>
<path d="M119 123L109 123C107.896 123 107 122.105 107 121L107 111" stroke="#86D29F" stroke-width="6" stroke-linecap="round" stroke-linejoin="round"/>
</svg>
