<svg width="152" height="108" viewBox="0 0 152 108" fill="none" xmlns="http://www.w3.org/2000/svg">
<ellipse cx="130.671" cy="28" rx="5.00662" ry="5" fill="#EAF7EE"/>
<ellipse cx="125.666" cy="57" rx="3.00397" ry="3" fill="#EAF7EE"/>
<ellipse cx="30.5391" cy="21" rx="3.00397" ry="3" fill="#EAF7EE"/>
<ellipse cx="64.5841" cy="105" rx="3.00397" ry="3" fill="#CDEAD6"/>
<ellipse cx="3.50397" cy="71" rx="3.00397" ry="3" fill="#CDEAD6"/>
<ellipse cx="18.5248" cy="50" rx="4.0053" ry="4" fill="#CDEAD6"/>
<ellipse cx="104.638" cy="102" rx="4.0053" ry="4" fill="#EAF7EE"/>
<ellipse cx="81.6069" cy="4" rx="4.00529" ry="4" fill="#EAF7EE"/>
<ellipse cx="108.643" cy="15" rx="3.00397" ry="3" fill="#EAF7EE"/>
<ellipse cx="32.5418" cy="87" rx="5.00662" ry="5" fill="#EAF7EE"/>
<circle cx="50.5" cy="8" r="5" fill="#CDEAD6"/>
<ellipse cx="122.661" cy="81" rx="5.00662" ry="5" fill="#CDEAD6"/>
<circle cx="148" cy="50.5" r="3.5" fill="#CDEAD6"/>
<ellipse cx="77.6018" cy="55" rx="40.053" ry="40" fill="#EAF7EE"/>
<path d="M87.2217 43.2868C85.5003 42.9105 83.7155 42.9378 82.0062 43.3664C80.297 43.795 78.7094 44.6134 77.367 45.758C76.0246 44.6134 74.437 43.795 72.7278 43.3664C71.0185 42.9378 69.2337 42.9105 67.5122 43.2868C61.1264 44.9475 57.9926 52.8553 60.476 60.7631C62.9594 68.6709 70.0942 73.9098 76.4209 72.2294L77.367 71.9131L78.313 72.2294C84.6398 73.9098 91.7746 68.7895 94.258 60.7631C96.7414 52.7367 93.6076 44.9475 87.2217 43.2868Z" stroke="#86D29F" stroke-width="4" stroke-linecap="round" stroke-linejoin="round"/>
<path d="M74.4889 64.6743C74.3123 64.6969 74.1334 64.6969 73.9568 64.6743C72.548 64.3985 71.2458 63.7313 70.1998 62.7494C69.1539 61.7675 68.4066 60.5107 68.0439 59.1236C67.7199 58.306 67.5635 57.4318 67.5838 56.5527C67.6041 55.6737 67.8008 54.8077 68.1622 54.0059" stroke="#86D29F" stroke-width="4" stroke-linecap="round" stroke-linejoin="round"/>
<path d="M77.3672 44.9921C77.5892 42.8006 78.447 40.7142 79.8417 38.9731C81.2364 37.232 83.1115 35.9069 85.251 35.1504" stroke="#86D29F" stroke-width="4" stroke-linecap="round" stroke-linejoin="round"/>
</svg>
