<svg width="24" height="24" viewBox="0 0 24 24" fill="none" xmlns="http://www.w3.org/2000/svg">
<path d="M16.9998 6.13381C16.1264 5.94264 15.2208 5.95648 14.3536 6.17423C13.4864 6.39198 12.6809 6.80778 11.9998 7.38927C11.3187 6.80778 10.5132 6.39198 9.64599 6.17423C8.77876 5.95648 7.87321 5.94264 6.9998 6.13381C3.7598 6.97748 2.1698 10.995 3.4298 15.0125C4.6898 19.03 8.3098 21.6916 11.5198 20.8378L11.9998 20.6771L12.4798 20.8378C15.6898 21.6916 19.3098 19.0902 20.5698 15.0125C21.8298 10.9347 20.2398 6.97748 16.9998 6.13381Z" stroke="#939397" stroke-width="2" stroke-linecap="round" stroke-linejoin="round"/>
<path d="M10.54 17C10.4504 17.0115 10.3596 17.0115 10.27 17C9.55524 16.8599 8.89454 16.5209 8.36384 16.0221C7.83315 15.5232 7.454 14.8847 7.26999 14.18C7.10561 13.7646 7.02623 13.3205 7.03653 12.8739C7.04684 12.4273 7.14663 11.9874 7.32999 11.58" stroke="#939397" stroke-width="2" stroke-linecap="round" stroke-linejoin="round"/>
<path d="M12 7C12.1127 5.88662 12.5478 4.82666 13.2555 3.94211C13.9631 3.05755 14.9145 2.38436 16 2" stroke="#939397" stroke-width="2" stroke-linecap="round" stroke-linejoin="round"/>
</svg>
