<svg width="263" height="189" viewBox="0 0 263 189" fill="none" xmlns="http://www.w3.org/2000/svg">
<circle cx="226.328" cy="48.7476" r="8.70493" fill="#EAF7EE"/>
<circle cx="217.623" cy="99.2361" r="5.22296" fill="#EAF7EE"/>
<circle cx="52.2298" cy="36.5607" r="5.22296" fill="#EAF7EE"/>
<circle cx="111.423" cy="182.804" r="5.22296" fill="#CDEAD6"/>
<circle cx="5.22296" cy="123.61" r="5.22296" fill="#CDEAD6"/>
<circle cx="31.3377" cy="87.0493" r="6.96394" fill="#CDEAD6"/>
<circle cx="181.063" cy="177.581" r="6.96394" fill="#EAF7EE"/>
<circle cx="141.02" cy="6.96394" r="6.96394" fill="#EAF7EE"/>
<circle cx="188.027" cy="26.1147" r="5.22296" fill="#EAF7EE"/>
<circle cx="55.7118" cy="151.466" r="8.70493" fill="#EAF7EE"/>
<circle cx="87.0492" cy="13.9279" r="8.70493" fill="#CDEAD6"/>
<circle cx="212.4" cy="141.02" r="8.70493" fill="#CDEAD6"/>
<circle cx="256.796" cy="87.9197" r="6.09345" fill="#CDEAD6"/>
<circle cx="134.056" cy="95.7542" r="69.6394" fill="#EAF7EE"/>
<rect width="82.2446" height="82.2446" transform="translate(92.5249 54.3402)" fill="white" fill-opacity="0.01"/>
<path d="M106.232 112.597H99.3787V78.3282H143.928V112.597H119.94" stroke="#86D29F" stroke-width="6" stroke-linecap="round"/>
<path d="M161.062 112.597H167.916V97.3665L161.062 85.1819H143.928V112.597H147.355" stroke="#86D29F" stroke-width="6" stroke-linecap="round"/>
<path d="M113.086 119.45C116.871 119.45 119.94 116.382 119.94 112.597C119.94 108.812 116.871 105.743 113.086 105.743C109.301 105.743 106.232 108.812 106.232 112.597C106.232 116.382 109.301 119.45 113.086 119.45Z" stroke="#86D29F" stroke-width="6" stroke-linecap="round"/>
<path d="M154.208 119.45C157.994 119.45 161.062 116.382 161.062 112.597C161.062 108.812 157.994 105.743 154.208 105.743C150.423 105.743 147.355 108.812 147.355 112.597C147.355 116.382 150.423 119.45 154.208 119.45Z" stroke="#86D29F" stroke-width="6" stroke-linecap="round"/>
</svg>
