<svg version="1.0" xmlns="http://www.w3.org/2000/svg"
 width="512.000000pt" height="512.000000pt" viewBox="0 0 512.000000 512.000000"
 preserveAspectRatio="xMidYMid meet">

<g transform="translate(0.000000,512.000000) scale(0.100000,-0.100000)"
fill="#939397" stroke="none">
<path d="M2252 4836 c-588 -112 -998 -624 -969 -1211 31 -628 543 -1115 1172
-1115 263 0 495 78 707 238 319 240 500 650 458 1037 -54 509 -391 904 -879
1032 -120 31 -371 41 -489 19z m376 -322 c247 -51 468 -220 581 -445 72 -145
93 -233 93 -389 0 -156 -21 -244 -93 -389 -114 -227 -336 -395 -588 -446 -112
-23 -294 -16 -401 15 -220 63 -411 218 -519 421 -266 501 20 1110 579 1235 80
18 257 17 348 -2z"/>
<path d="M3886 2499 c-340 -46 -627 -302 -711 -635 -20 -77 -25 -122 -25 -222
l0 -126 -259 -256 c-219 -215 -261 -261 -270 -295 -6 -23 -11 -150 -11 -300 0
-251 1 -263 23 -305 12 -25 37 -55 56 -67 33 -23 40 -23 322 -23 178 0 298 4
316 11 15 5 143 125 285 266 l256 256 134 1 c157 2 232 19 363 81 219 103 388
301 455 535 49 169 36 395 -32 559 -64 153 -211 325 -344 403 -168 98 -376
142 -558 117z m279 -340 c123 -38 252 -148 308 -264 144 -293 2 -644 -303
-747 -71 -24 -199 -30 -321 -14 -52 7 -71 5 -95 -7 -16 -9 -146 -133 -289
-276 l-260 -261 -137 0 -138 0 0 127 0 128 269 270 c302 303 304 305 282 411
-36 182 8 355 122 481 146 160 354 216 562 152z"/>
<path d="M3905 1861 c-122 -56 -168 -191 -107 -312 82 -162 306 -170 398 -14
69 118 22 270 -101 326 -52 24 -138 24 -190 0z"/>
<path d="M2170 2313 c-185 -17 -275 -28 -396 -48 -824 -138 -1403 -522 -1494
-991 -7 -37 -10 -145 -8 -294 3 -231 3 -236 30 -292 34 -73 103 -142 176 -176
l57 -27 876 -3 875 -2 34 22 c50 34 72 71 77 125 5 65 -26 120 -87 151 l-44
22 -826 0 c-629 0 -829 3 -838 12 -9 9 -12 69 -12 208 0 169 3 205 19 253 98
283 543 544 1131 661 257 52 351 59 733 61 341 2 359 3 385 22 96 71 96 195 1
266 -17 12 -54 22 -100 28 -69 8 -512 10 -589 2z"/>
</g>
</svg>