<svg width="24" height="24" viewBox="0 0 24 24" fill="none" xmlns="http://www.w3.org/2000/svg">
<path d="M5.03507 12.705C5.01188 12.4732 5.00001 12.238 5.00001 12C5.00001 11.762 5.01188 11.5268 5.03507 11.295L3.20578 9.23205L5.20578 5.76795L7.90698 6.32071C8.2873 6.04613 8.6963 5.80882 9.12863 5.61412L10 3H14L14.8714 5.61412C15.3037 5.80882 15.7127 6.04613 16.093 6.32071L18.7942 5.76795L20.7942 9.23205L18.9649 11.295C18.9881 11.5268 19 11.762 19 12C19 12.238 18.9881 12.4732 18.9649 12.705L20.7942 14.7679L18.7942 18.232L16.093 17.6793C15.7127 17.9539 15.3037 18.1912 14.8714 18.3859L14 21H10L9.12863 18.3859C8.6963 18.1912 8.2873 17.9539 7.90698 17.6793L5.20578 18.232L3.20578 14.7679L5.03507 12.705Z" stroke="#939397" stroke-width="2" stroke-linecap="round"/>
<path d="M12 13C12.5523 13 13 12.5523 13 12C13 11.4477 12.5523 11 12 11C11.4477 11 11 11.4477 11 12C11 12.5523 11.4477 13 12 13Z" stroke="#939397" stroke-width="2" stroke-linecap="round"/>
</svg>
