<svg width="56" height="56" viewBox="0 0 56 56" fill="none" xmlns="http://www.w3.org/2000/svg">
<circle cx="28" cy="28" r="24" fill="#E2232E" stroke="#E2232E" stroke-width="8"/>
<mask id="mask0_3645_16103" style="mask-type:alpha" maskUnits="userSpaceOnUse" x="7" y="7" width="40" height="40">
<rect x="7" y="7" width="40" height="40" fill="#D9D9D9"/>
</mask>
<g mask="url(#mask0_3645_16103)">
<path d="M17.1068 42.8326C16.3905 42.8326 15.7769 42.5772 15.2662 42.0664C14.7554 41.5557 14.5 40.9421 14.5 40.2258V21.7461C14.5 21.3889 14.5705 21.0494 14.7115 20.7277C14.8526 20.4059 15.0427 20.1254 15.2821 19.8861L23.2201 11.9374C23.4594 11.7052 23.7399 11.5186 24.0617 11.3776C24.3834 11.2365 24.7229 11.166 25.0801 11.166H36.8931C37.6094 11.166 38.223 11.4214 38.7337 11.9322C39.2445 12.443 39.4999 13.0565 39.4999 13.7729V40.2258C39.4999 40.9421 39.2445 41.5557 38.7337 42.0664C38.223 42.5772 37.6094 42.8326 36.8931 42.8326H17.1068ZM17.1068 40.7386H36.8931C37.0213 40.7386 37.1388 40.6852 37.2457 40.5784C37.3525 40.4715 37.406 40.354 37.406 40.2258V13.7729C37.406 13.6446 37.3525 13.5271 37.2457 13.4203C37.1388 13.3134 37.0213 13.26 36.8931 13.26H24.9252L16.594 21.5894V40.2258C16.594 40.354 16.6474 40.4715 16.7542 40.5784C16.8611 40.6852 16.9786 40.7386 17.1068 40.7386ZM26.9977 34.5057C27.363 34.5057 27.6737 34.3748 27.9299 34.1131C28.186 33.8513 28.314 33.5485 28.314 33.2045C28.314 32.8606 28.186 32.5552 27.9299 32.2884C27.6737 32.0216 27.363 31.8882 26.9977 31.8882C26.6324 31.8882 26.3242 32.0216 26.0732 32.2884C25.8221 32.5552 25.6965 32.8606 25.6965 33.2045C25.6965 33.5485 25.8221 33.8513 26.0732 34.1131C26.3242 34.3748 26.6324 34.5057 26.9977 34.5057ZM27.0499 29.1767C27.3485 29.1767 27.5968 29.0765 27.7948 28.8761C27.9928 28.6757 28.0918 28.4269 28.0918 28.1297V22.0826C28.0918 21.7855 27.9911 21.5367 27.7897 21.3363C27.5884 21.1359 27.3384 21.0357 27.0397 21.0357C26.7411 21.0357 26.4928 21.1359 26.2948 21.3363C26.0968 21.5367 25.9978 21.7855 25.9978 22.0826V28.1297C25.9978 28.4269 26.0985 28.6757 26.2999 28.8761C26.5013 29.0765 26.7513 29.1767 27.0499 29.1767ZM17.1068 40.7386H16.594H37.406H17.1068Z" fill="white"/>
</g>
</svg>
